<?xml version="1.0" encoding="UTF-8"?><svg xmlns="http://www.w3.org/2000/svg" viewBox="0 0 25 25"><defs><style>.d,.e{fill:#fff;}.f{fill:none;}.e{isolation:isolate;opacity:.4;}</style></defs><g id="a"/><g id="b"><g id="c"><g><rect class="f" width="25" height="25"/><g><path class="d" d="M23.21,19.64H1.74c-.94,0-1.74,.8-1.74,1.74s.8,1.84,1.74,1.84H23.16c1.04,0,1.84-.8,1.84-1.79s-.8-1.79-1.79-1.79Zm0-17.86H1.74c-.94,0-1.74,.8-1.74,1.74s.8,1.84,1.74,1.84H23.16c1.04,0,1.84-.8,1.84-1.79s-.8-1.79-1.79-1.79Z"/><path class="e" d="M25,12.5c0,.99-.8,1.79-1.74,1.79H1.74c-.94,0-1.74-.8-1.74-1.79s.8-1.79,1.74-1.79H23.16c1.04,0,1.84,.8,1.84,1.79Z"/></g></g></g></g></svg>