<?xml version="1.0" encoding="UTF-8"?><svg xmlns="http://www.w3.org/2000/svg" viewBox="0 0 10 10"><defs><style>.d,.e{fill:#455a64;}.e{isolation:isolate;opacity:.4;}.f{fill:none;}</style></defs><g id="a"/><g id="b"><g id="c"><rect class="f" width="10" height="10"/><g><path class="d" d="M5,10c-.18,0-.37-.07-.5-.21L.21,5.5c-.28-.28-.28-.73,0-1.01L4.49,.21c.28-.28,.73-.28,1.01,0s.28,.73,0,1.01L1.72,5l3.78,3.78c.28,.28,.28,.73,0,1.01-.14,.14-.32,.21-.51,.21Z"/><path class="e" d="M9.28,10c-.18,0-.37-.07-.5-.21L4.49,5.5c-.28-.28-.28-.73,0-1.01L8.78,.21c.28-.28,.73-.28,1.01,0s.28,.73,0,1.01l-3.78,3.78,3.78,3.78c.28,.28,.28,.73,0,1.01-.14,.14-.32,.21-.51,.21Z"/></g></g></g></svg>