<?xml version="1.0" encoding="UTF-8"?><svg xmlns="http://www.w3.org/2000/svg" viewBox="0 0 10 10"><defs><style>.d,.e{fill:#455a64;}.e{isolation:isolate;opacity:.4;}.f{fill:none;}</style></defs><g id="a"/><g id="b"><g id="c"><rect class="f" x="0" y="0" width="10" height="10" transform="translate(10 10) rotate(180)"/><g><path class="d" d="M5,0c.18,0,.37,.07,.5,.21l4.29,4.29c.28,.28,.28,.73,0,1.01l-4.29,4.29c-.28,.28-.73,.28-1.01,0s-.28-.73,0-1.01l3.78-3.78L4.5,1.22c-.28-.28-.28-.73,0-1.01C4.63,.07,4.82,0,5,0Z"/><path class="e" d="M.72,0c.18,0,.37,.07,.5,.21L5.51,4.5c.28,.28,.28,.73,0,1.01L1.22,9.79c-.28,.28-.73,.28-1.01,0s-.28-.73,0-1.01l3.78-3.78L.21,1.22c-.28-.28-.28-.73,0-1.01C.35,.07,.53,0,.72,0Z"/></g></g></g></svg>