<?xml version="1.0" encoding="UTF-8"?><svg xmlns="http://www.w3.org/2000/svg" viewBox="0 0 25 25"><defs><style>.d,.e{fill:#fff;}.f{fill:none;}.e{isolation:isolate;opacity:.4;}</style></defs><g id="a"/><g id="b"><g id="c"><g><g><path class="d" d="M22.66,21.88H2.34c-.43,0-.78,.35-.78,.78v1.56c0,.43,.35,.78,.78,.78H22.66c.43,0,.78-.35,.78-.78v-1.56c0-.43-.35-.78-.78-.78ZM8.59,10.16h2.73v6.25c0,.43,.35,.78,.78,.78h.78c.43,0,.78-.35,.78-.78v-6.25h2.73c.43,0,.78-.35,.78-.78v-.78c0-.43-.35-.78-.78-.78h-2.73v-2.34c0-.43-.35-.78-.78-.78h-.78c-.43,0-.78,.35-.78,.78l-.04,2.34h-2.69c-.43,0-.78,.35-.78,.78v.78c0,.43,.35,.78,.78,.78Z"/><path class="e" d="M12.46,0C7.28,0,3.08,4.2,3.08,9.38l.04,12.5H21.88V9.38c-.04-5.18-4.24-9.38-9.42-9.38Zm4.73,9.38c0,.43-.35,.78-.78,.78h-2.73v6.25c0,.43-.35,.78-.78,.78h-.78c-.43,0-.78-.35-.78-.78l-.04-6.25h-2.69c-.43,0-.78-.35-.78-.78v-.78c0-.43,.35-.78,.78-.78h2.73v-2.34c0-.43,.35-.78,.78-.78h.78c.43,0,.78,.35,.78,.78v2.3l2.73,.04c.43,0,.78,.35,.78,.78v.78Z"/></g><rect class="f" width="25" height="25"/></g></g></g></svg>